<svg id="Layer_1" data-name="Layer 1" xmlns="http://www.w3.org/2000/svg" viewBox="0 0 1400 1000"><defs><style>.cls-1{fill:#ee2f65;}.cls-2{fill:#fff;}</style></defs><rect class="cls-1" x="541.57" y="341.57" width="316.86" height="316.86" rx="57.83"/><path class="cls-2" d="M713.22,532.49h37.35L744.23,560a21.52,21.52,0,0,1-21,16.68H703Z"/><path class="cls-2" d="M773.68,442l-5,22.07H731.31l9.27-40.67h18.26A15.22,15.22,0,0,1,773.68,442Z"/><path class="cls-2" d="M678.83,423.37l-13.92,58.26L656.09,515l-14.8,61.6H629.54A20.09,20.09,0,0,1,610,551.75L635.91,446a29.75,29.75,0,0,1,28.89-22.67Z"/><polyline class="cls-2" points="656.09 515.03 664.91 481.63 766.5 481.63 768.84 473.68 790.57 500 754.85 524.07 757.31 515.12"/><polygon class="cls-2" points="664.91 481.63 656.09 515.03 643.2 515.03 643.2 481.63 664.91 481.63"/></svg>