<svg id="Layer_1" data-name="Layer 1" xmlns="http://www.w3.org/2000/svg" viewBox="0 0 1400 1000"><defs><style>.cls-1{fill:#ee2f65;}.cls-2{fill:#00000e;}</style></defs><path class="cls-1" d="M564,503.2h19l-3.21,13.93a10.93,10.93,0,0,1-10.64,8.47H558.82Z"/><path class="cls-1" d="M594.67,457.27l-2.55,11.19h-19l4.7-20.63h9.27A7.72,7.72,0,0,1,594.67,457.27Z"/><path class="cls-1" d="M546.54,447.83l-7.06,29.56L535,494.34l-7.51,31.26h-6A10.2,10.2,0,0,1,511.62,513l13.14-53.64a15.1,15.1,0,0,1,14.66-11.5Z"/><polyline class="cls-1" points="535 494.34 539.48 477.39 591.03 477.39 592.22 473.36 603.24 486.71 585.12 498.93 586.36 494.38"/><polygon class="cls-1" points="539.48 477.39 535 494.34 528.46 494.34 528.46 477.39 539.48 477.39"/><path class="cls-2" d="M674.86,520.33h-12V493.28a23.14,23.14,0,0,0-.87-6.86,10.83,10.83,0,0,0-2.57-4.44,9.45,9.45,0,0,0-4.1-2.4,19.83,19.83,0,0,0-5.54-.7,14.25,14.25,0,0,0-5.4,1,12.48,12.48,0,0,0-4.34,2.93,13.79,13.79,0,0,0-2.88,4.57,15.86,15.86,0,0,0-1.05,5.88v27.1H624.27V451.53h11.82L636,474.68a25.53,25.53,0,0,1,7.08-4.35,22.83,22.83,0,0,1,9-1.76,29,29,0,0,1,10.16,1.61,17.84,17.84,0,0,1,7.1,4.74,19.41,19.41,0,0,1,4.15,7.69,37,37,0,0,1,1.35,10.47Z"/><path class="cls-2" d="M680.53,495.23a27.75,27.75,0,0,1,1.93-10.37,25.09,25.09,0,0,1,5.46-8.47,25.93,25.93,0,0,1,8.5-5.72,27.92,27.92,0,0,1,11-2.1,25.48,25.48,0,0,1,5.4.56,27.31,27.31,0,0,1,4.81,1.52,23.2,23.2,0,0,1,4.12,2.24,26.87,26.87,0,0,1,3.35,2.71l.68-5.51H736v50.24H725.79l-.68-5.52a24.28,24.28,0,0,1-3.42,2.74,25.95,25.95,0,0,1-8.91,3.73,24.84,24.84,0,0,1-5.4.56,28.16,28.16,0,0,1-11-2.07,25.22,25.22,0,0,1-8.47-5.69,25.84,25.84,0,0,1-5.47-8.47A27.61,27.61,0,0,1,680.53,495.23Zm11.86-.05a17.08,17.08,0,0,0,1.27,6.64,15.7,15.7,0,0,0,3.47,5.2,15.35,15.35,0,0,0,5.13,3.37,17,17,0,0,0,12.54,0,15.17,15.17,0,0,0,5.11-3.37,16,16,0,0,0,3.44-5.17,16.87,16.87,0,0,0,1.27-6.67,16.61,16.61,0,0,0-1.27-6.56,15.49,15.49,0,0,0-3.47-5.15,15.89,15.89,0,0,0-5.12-3.37,16.15,16.15,0,0,0-6.3-1.22,16.43,16.43,0,0,0-6.3,1.19,15.42,15.42,0,0,0-5.11,3.37,15.83,15.83,0,0,0-3.41,5.18A17,17,0,0,0,692.39,495.18Z"/><path class="cls-2" d="M793.77,470.09l-29.45,67.48H751.53l9-19.34-20.85-48.14H752.8L766.18,502l.58,2.54L781,470.14Z"/><path class="cls-2" d="M792.45,495.23a28.14,28.14,0,0,1,1.91-10.37,25.82,25.82,0,0,1,5.39-8.5,25.31,25.31,0,0,1,8.43-5.74,27.59,27.59,0,0,1,10.93-2.1,24.2,24.2,0,0,1,9.62,1.81,26.15,26.15,0,0,1,7.28,4.59V451.53h11.86v68.8H837.72l-.73-5.86a25.48,25.48,0,0,1-3.4,2.91,24.21,24.21,0,0,1-4.12,2.34,26.13,26.13,0,0,1-4.79,1.59,23.83,23.83,0,0,1-5.37.58,27.81,27.81,0,0,1-11-2.1,25.28,25.28,0,0,1-13.94-14.18A27.42,27.42,0,0,1,792.45,495.23Zm11.87-.05a16.9,16.9,0,0,0,1.27,6.64,15.57,15.57,0,0,0,8.59,8.57,16.51,16.51,0,0,0,6.3,1.2,16.33,16.33,0,0,0,6.25-1.2,15.23,15.23,0,0,0,5.1-3.37,16,16,0,0,0,3.45-5.17,17.05,17.05,0,0,0,1.27-6.67,16.79,16.79,0,0,0-1.27-6.56,15.64,15.64,0,0,0-3.47-5.15,16.2,16.2,0,0,0-11.43-4.59,16.5,16.5,0,0,0-6.3,1.19,15.38,15.38,0,0,0-5.1,3.37,15.7,15.7,0,0,0-3.42,5.18A17,17,0,0,0,804.32,495.18Z"/><path class="cls-2" d="M856.77,455.88a6.36,6.36,0,0,1,.53-2.57,6.87,6.87,0,0,1,1.49-2.1,7.24,7.24,0,0,1,2.32-1.44,8.38,8.38,0,0,1,3-.53,8.57,8.57,0,0,1,3.05.53,7.37,7.37,0,0,1,2.37,1.44,6.61,6.61,0,0,1,1.51,2.1,6.36,6.36,0,0,1,0,5.13,6.4,6.4,0,0,1-1.51,2.1,7.16,7.16,0,0,1-2.37,1.42,8.79,8.79,0,0,1-3.05.51,8.35,8.35,0,0,1-3-.51,7.24,7.24,0,0,1-2.32-1.42,6.43,6.43,0,0,1-1.52-2.1A6.31,6.31,0,0,1,856.77,455.88Zm1.31,14.21h12v50.24h-12Z"/><path class="cls-2" d="M880.21,471.35h-1.48v-1.06h4.2v1.06h-1.48v4.25h-1.24Z"/><path class="cls-2" d="M885.77,474.19l-1.35-1.89v3.3h-1.24v-5.31h1.09l1.65,2.25,1.67-2.25h1.09v5.31h-1.24v-3.29l-1.37,1.88Z"/><path class="cls-2" d="M791,539.75H802.5a13.34,13.34,0,0,1-.71,5,11.43,11.43,0,0,1-2.33,3.91,10.53,10.53,0,0,1-3.63,2.54,11.83,11.83,0,0,1-4.65.9,12.94,12.94,0,0,1-3.26-.41,12.38,12.38,0,0,1-5.38-3,11.21,11.21,0,0,1-1.91-2.39,11.48,11.48,0,0,1-1.23-2.82,11.53,11.53,0,0,1,0-6.31,11.82,11.82,0,0,1,1.23-2.82,11.16,11.16,0,0,1,1.91-2.38,12.47,12.47,0,0,1,8.64-3.43,12.81,12.81,0,0,1,4.8.91,12.09,12.09,0,0,1,4,2.71l-2.72,2.74a8.16,8.16,0,0,0-1.16-1.11,7.7,7.7,0,0,0-1.42-.89,8.13,8.13,0,0,0-3.53-.79,7.95,7.95,0,0,0-5.71,2.37,8.17,8.17,0,0,0-1.74,2.61,8.36,8.36,0,0,0,1.74,9.11,8.09,8.09,0,0,0,2.56,1.73,7.91,7.91,0,0,0,3.15.63,9.29,9.29,0,0,0,2.85-.41,6.64,6.64,0,0,0,2.15-1.17,6.11,6.11,0,0,0,1.44-1.82,7.77,7.77,0,0,0,.75-2.36H791Z"/><path class="cls-2" d="M804.26,543.11a8.9,8.9,0,0,1,.7-3.53,8.64,8.64,0,0,1,1.95-2.88,9.2,9.2,0,0,1,3-1.94,10.28,10.28,0,0,1,7.56,0,9,9,0,0,1,3,1.94,8.94,8.94,0,0,1,2.67,6.41,5.4,5.4,0,0,1,0,.66l-.06.48H808.23a5.51,5.51,0,0,0,.72,1.9,5.61,5.61,0,0,0,1.26,1.43,5.73,5.73,0,0,0,1.64.91,5.29,5.29,0,0,0,1.84.33,5.08,5.08,0,0,0,2.64-.67,4.41,4.41,0,0,0,1.74-1.74h4.37a8.35,8.35,0,0,1-1.21,2.17,8.81,8.81,0,0,1-1.92,1.83,9.3,9.3,0,0,1-2.54,1.27,10.44,10.44,0,0,1-6.88-.24,9.2,9.2,0,0,1-3-1.94,8.7,8.7,0,0,1-1.95-2.87A8.85,8.85,0,0,1,804.26,543.11Zm9.43-5.83a5.57,5.57,0,0,0-1.9.31,5.35,5.35,0,0,0-1.56.85,5.24,5.24,0,0,0-1.17,1.31,5.53,5.53,0,0,0-.71,1.65h10.51a6.08,6.08,0,0,0-.7-1.65,5.29,5.29,0,0,0-1.13-1.31,5,5,0,0,0-1.5-.85A5.19,5.19,0,0,0,813.69,537.28Z"/><path class="cls-2" d="M825.36,528.25h4v23.39h-4Z"/><path class="cls-2" d="M835.11,546.49a1.84,1.84,0,0,0,.29.92,2.74,2.74,0,0,0,.74.74,3.84,3.84,0,0,0,1.08.5,4.7,4.7,0,0,0,1.33.18,5.52,5.52,0,0,0,2.84-.57,1.75,1.75,0,0,0,.91-1.55,1.29,1.29,0,0,0-.33-.91,2.49,2.49,0,0,0-1-.62,11,11,0,0,0-1.55-.44c-.61-.13-1.3-.26-2.07-.4-.39-.06-.8-.13-1.22-.22a9.62,9.62,0,0,1-1.27-.36,6.69,6.69,0,0,1-1.21-.57,4.35,4.35,0,0,1-1-.85,4.17,4.17,0,0,1-.71-1.22,4.88,4.88,0,0,1-.26-1.67,5.37,5.37,0,0,1,.43-2.18,4.43,4.43,0,0,1,1.35-1.71,6.6,6.6,0,0,1,2.32-1.12,12.71,12.71,0,0,1,3.37-.4,9.19,9.19,0,0,1,2.78.4,6.45,6.45,0,0,1,2.1,1.11,4.89,4.89,0,0,1,1.33,1.71,5.1,5.1,0,0,1,.46,2.18l-4,0a2,2,0,0,0-.85-1.48,3.43,3.43,0,0,0-2.07-.58,5.08,5.08,0,0,0-1.45.18,3.18,3.18,0,0,0-1,.45,1.83,1.83,0,0,0-.56.66,1.77,1.77,0,0,0-.18.77,1.2,1.2,0,0,0,.25.78,1.79,1.79,0,0,0,.74.53,6,6,0,0,0,1.26.37c.51.1,1.11.19,1.8.26s1.65.3,2.45.49a8.38,8.38,0,0,1,2.16.84,4.52,4.52,0,0,1,1.53,1.45,4.11,4.11,0,0,1,.58,2.3,5.16,5.16,0,0,1-.58,2.52,5.07,5.07,0,0,1-1.64,1.78,7.54,7.54,0,0,1-2.56,1.07,14.19,14.19,0,0,1-3.32.36,9.33,9.33,0,0,1-3.19-.5,7,7,0,0,1-2.26-1.32,5.46,5.46,0,0,1-1.36-1.83,5,5,0,0,1-.45-2Z"/><path class="cls-2" d="M847.73,529.73a2.12,2.12,0,0,1,.18-.87,2.3,2.3,0,0,1,.51-.72,2.52,2.52,0,0,1,.79-.49,2.82,2.82,0,0,1,1-.18,3,3,0,0,1,1,.18,2.57,2.57,0,0,1,.8.49,2.33,2.33,0,0,1,.52.72,2.19,2.19,0,0,1,0,1.74,2.29,2.29,0,0,1-.52.71,2.22,2.22,0,0,1-.8.48,3,3,0,0,1-1,.18,2.73,2.73,0,0,1-1-.18,2.18,2.18,0,0,1-.79-.48,2.29,2.29,0,0,1-.52-.71A2.12,2.12,0,0,1,847.73,529.73Zm.45,4.83h4.07v17.08h-4.07Z"/><path class="cls-2" d="M873.17,551.64H869.1v-9.11a7.71,7.71,0,0,0-.3-2.31,4.05,4.05,0,0,0-.85-1.55,3.23,3.23,0,0,0-1.33-.86,5.48,5.48,0,0,0-1.77-.26,4.78,4.78,0,0,0-2,.39,4.55,4.55,0,0,0-1.54,1.09,5,5,0,0,0-1,1.68,6.1,6.1,0,0,0-.36,2.13v8.8h-4V534.56h3.28l.3,1.72a9.24,9.24,0,0,1,1.2-.87,9,9,0,0,1,1.42-.71,8.27,8.27,0,0,1,1.58-.48,8,8,0,0,1,1.68-.18,9.67,9.67,0,0,1,3.45.56,6,6,0,0,1,2.42,1.63,6.59,6.59,0,0,1,1.41,2.63,13,13,0,0,1,.46,3.58Z"/></svg>