<svg id="Group_1701" data-name="Group 1701" xmlns="http://www.w3.org/2000/svg" width="1664.539" height="460.357" viewBox="0 0 1664.539 460.357">
  <path id="Path_2146" data-name="Path 2146" d="M581.67,503.2h83.813l-14.16,61.448a48.215,48.215,0,0,1-46.935,37.362H558.82Z" transform="translate(-349.349 -258.953)" fill="#fff"/>
  <path id="Path_2147" data-name="Path 2147" d="M668.181,489.472l-11.249,49.361H573.12l20.733-91h40.891a34.055,34.055,0,0,1,33.437,41.642Z" transform="translate(-300.569 -447.83)" fill="#fff"/>
  <path id="Path_2148" data-name="Path 2148" d="M666.635,447.83,635.492,578.224,615.73,652.994,582.6,790.887H556.135A44.995,44.995,0,0,1,512.6,735.306L570.56,498.691a66.609,66.609,0,0,1,64.667-50.728Z" transform="translate(-511.333 -447.829)" fill="#fff"/>
  <path id="Path_2149" data-name="Path 2149" d="M535,565.906l19.762-74.769h227.4l5.249-17.777,48.611,58.889-79.93,53.9,5.47-20.071" transform="translate(-430.603 -360.742)" fill="#fff"/>
  <path id="Path_2150" data-name="Path 2150" d="M577.071,477.39l-19.762,74.769H528.46V477.39Z" transform="translate(-452.912 -346.995)" fill="#fff"/>
  <path id="Path_2151" data-name="Path 2151" d="M847.431,755.018H794.5V635.7a102.109,102.109,0,0,0-3.838-30.26,47.772,47.772,0,0,0-11.337-19.586,41.687,41.687,0,0,0-18.086-10.587,87.469,87.469,0,0,0-24.437-3.088,62.866,62.866,0,0,0-23.821,4.411,55.053,55.053,0,0,0-19.144,12.925,60.82,60.82,0,0,0-12.7,20.159,69.936,69.936,0,0,0-4.632,25.937V755.15H624.27V451.53h52.14l-.4,102.119a112.6,112.6,0,0,1,31.231-19.189,100.7,100.7,0,0,1,39.7-7.763,127.923,127.923,0,0,1,44.817,7.1,78.694,78.694,0,0,1,31.319,20.909,85.618,85.618,0,0,1,18.307,33.922,163.223,163.223,0,0,1,5.955,46.185Z" transform="translate(-126.088 -435.208)" fill="#fff"/>
  <path id="Path_2152" data-name="Path 2152" d="M680.535,586.18a122.4,122.4,0,0,1,8.513-45.744,110.678,110.678,0,0,1,24.085-37.363,114.378,114.378,0,0,1,37.495-25.232,123.151,123.151,0,0,1,48.522-9.263,112.37,112.37,0,0,1,23.821,2.47,120.467,120.467,0,0,1,21.218,6.7,102.33,102.33,0,0,1,18.174,9.881,118.5,118.5,0,0,1,14.777,11.954l3-24.306h45.082V696.9H880.184l-3-24.35A107.074,107.074,0,0,1,862.1,684.637a114.464,114.464,0,0,1-39.3,16.453,109.557,109.557,0,0,1-23.821,2.47,124.215,124.215,0,0,1-48.523-9.131,111.251,111.251,0,0,1-37.362-25.1,113.993,113.993,0,0,1-24.129-37.363A121.784,121.784,0,0,1,680.535,586.18Zm52.316-.22a75.345,75.345,0,0,0,5.6,29.29,69.268,69.268,0,0,0,15.306,22.938,67.7,67.7,0,0,0,22.63,14.866,74.992,74.992,0,0,0,55.315,0,66.922,66.922,0,0,0,22.541-14.866,70.566,70.566,0,0,0,15.174-22.805,74.4,74.4,0,0,0,5.6-29.423,73.271,73.271,0,0,0-5.6-28.937,68.319,68.319,0,0,0-15.306-22.717,70.08,70.08,0,0,0-22.586-14.866,71.247,71.247,0,0,0-27.79-5.382,72.471,72.471,0,0,0-27.791,5.25,68.021,68.021,0,0,0-22.541,14.865,69.815,69.815,0,0,0-15.043,22.85,74.984,74.984,0,0,0-5.514,28.937Z" transform="translate(65.819 -377.09)" fill="#fff"/>
  <path id="Path_2153" data-name="Path 2153" d="M978.28,470.09,848.371,767.755H791.952l39.7-85.312L739.68,470.09h57.874l59.021,140.76,2.559,11.2,62.815-151.744Z" transform="translate(267.595 -371.897)" fill="#fff"/>
  <path id="Path_2154" data-name="Path 2154" d="M792.456,644.3a124.117,124.117,0,0,1,8.425-45.744,113.9,113.9,0,0,1,23.776-37.5,111.648,111.648,0,0,1,37.186-25.32,121.7,121.7,0,0,1,48.214-9.264,106.745,106.745,0,0,1,42.435,7.984,115.334,115.334,0,0,1,32.113,20.247V451.53h52.316V755.018H992.149l-3.22-25.849a112.417,112.417,0,0,1-15,12.836,106.808,106.808,0,0,1-18.174,10.322,115.269,115.269,0,0,1-21.13,7.014A105.138,105.138,0,0,1,910.94,761.9a122.675,122.675,0,0,1-48.523-9.264,111.513,111.513,0,0,1-61.492-62.55A120.949,120.949,0,0,1,792.456,644.3Zm52.36-.221a74.547,74.547,0,0,0,5.6,29.29,68.683,68.683,0,0,0,37.892,37.8,72.827,72.827,0,0,0,27.79,5.293,72.033,72.033,0,0,0,27.57-5.293,67.181,67.181,0,0,0,22.5-14.866A70.578,70.578,0,0,0,981.386,673.5a75.2,75.2,0,0,0,5.6-29.423,74.053,74.053,0,0,0-5.6-28.937,68.984,68.984,0,0,0-15.307-22.717,71.459,71.459,0,0,0-50.419-20.247,72.784,72.784,0,0,0-27.79,5.249,67.842,67.842,0,0,0-22.5,14.865,69.258,69.258,0,0,0-15.085,22.85,74.99,74.99,0,0,0-5.471,28.937Z" transform="translate(447.597 -435.208)" fill="#fff"/>
  <path id="Path_2155" data-name="Path 2155" d="M856.773,478.531a28.055,28.055,0,0,1,2.338-11.337,30.305,30.305,0,0,1,6.572-9.263,31.935,31.935,0,0,1,10.234-6.352,36.959,36.959,0,0,1,13.233-2.338,37.8,37.8,0,0,1,13.454,2.338,32.513,32.513,0,0,1,10.454,6.352,29.146,29.146,0,0,1,6.661,9.264,27.9,27.9,0,0,1-6.661,31.893,31.57,31.57,0,0,1-10.454,6.264,38.777,38.777,0,0,1-13.453,2.25,36.832,36.832,0,0,1-13.234-2.25,31.93,31.93,0,0,1-10.234-6.264,28.368,28.368,0,0,1-6.7-9.263,27.825,27.825,0,0,1-2.207-11.293Zm5.778,62.683h52.934V762.831H862.551Z" transform="translate(667.006 -443.021)" fill="#fff"/>
  <path id="Path_2156" data-name="Path 2156" d="M885.258,474.966H878.73V470.29h18.527v4.676h-6.529v18.747h-5.47Z" transform="translate(741.918 -371.214)" fill="#fff"/>
  <path id="Path_2157" data-name="Path 2157" d="M894.6,487.494l-5.956-8.337v14.557H883.18V470.29h4.808l7.279,9.925,7.366-9.925h4.808v23.423h-5.469V479.2l-6.044,8.293Z" transform="translate(757.098 -371.214)" fill="#fff"/>
  <path id="Path_2158" data-name="Path 2158" d="M832.071,577.99H882.8a58.826,58.826,0,0,1-3.131,22.056,50.436,50.436,0,0,1-10.279,17.248,46.458,46.458,0,0,1-16.012,11.2,52.189,52.189,0,0,1-20.512,3.97,57.061,57.061,0,0,1-14.381-1.808,54.6,54.6,0,0,1-23.732-13.233,49.484,49.484,0,0,1-8.426-10.543,50.827,50.827,0,0,1-5.425-40.274,52.183,52.183,0,0,1,5.426-12.439,49.239,49.239,0,0,1,8.425-10.5,55.008,55.008,0,0,1,38.113-15.131,56.516,56.516,0,0,1,21.173,4.014,53.33,53.33,0,0,1,17.645,11.954l-12,12.086a35.988,35.988,0,0,0-5.117-4.9,33.967,33.967,0,0,0-6.264-3.926,35.863,35.863,0,0,0-15.571-3.484,35.068,35.068,0,0,0-25.188,10.454,36.031,36.031,0,0,0-7.676,11.512,36.877,36.877,0,0,0,7.675,40.186,35.7,35.7,0,0,0,11.293,7.632,34.889,34.889,0,0,0,13.9,2.779,40.986,40.986,0,0,0,12.572-1.808,29.311,29.311,0,0,0,9.484-5.161,26.954,26.954,0,0,0,6.352-8.029,34.269,34.269,0,0,0,3.308-10.41H832.071Z" transform="translate(401.585 -172.514)" fill="#fff"/>
  <path id="Path_2159" data-name="Path 2159" d="M804.263,574.05a39.261,39.261,0,0,1,3.088-15.571,38.112,38.112,0,0,1,8.6-12.7,40.586,40.586,0,0,1,13.233-8.558,45.348,45.348,0,0,1,33.349,0,39.3,39.3,0,0,1,25.011,36.833,23.875,23.875,0,0,1,0,2.911l-.264,2.117H821.775a24.331,24.331,0,0,0,3.176,8.382,24.754,24.754,0,0,0,5.559,6.308,25.278,25.278,0,0,0,7.234,4.014,23.333,23.333,0,0,0,8.117,1.456,22.413,22.413,0,0,0,11.645-2.956,19.45,19.45,0,0,0,7.675-7.675h19.277a36.819,36.819,0,0,1-5.338,9.572,38.859,38.859,0,0,1-8.469,8.072,41.04,41.04,0,0,1-11.2,5.6,46.052,46.052,0,0,1-30.348-1.059,40.6,40.6,0,0,1-13.234-8.558,38.378,38.378,0,0,1-8.6-12.66A39.041,39.041,0,0,1,804.263,574.05Zm41.6-25.717a24.586,24.586,0,0,0-8.381,1.367,23.6,23.6,0,0,0-6.882,3.749,23.13,23.13,0,0,0-5.161,5.779,24.382,24.382,0,0,0-3.132,7.278h46.361a26.811,26.811,0,0,0-3.088-7.279,23.324,23.324,0,0,0-4.984-5.779,22.07,22.07,0,0,0-6.616-3.75,22.9,22.9,0,0,0-8.116-1.367Z" transform="translate(487.885 -153.753)" fill="#fff"/>
  <path id="Path_2160" data-name="Path 2160" d="M825.36,528.25h17.645V631.427H825.36Z" transform="translate(559.864 -173.503)" fill="#fff"/>
  <path id="Path_2161" data-name="Path 2161" d="M848.721,588.964A8.111,8.111,0,0,0,850,593.022a12.1,12.1,0,0,0,3.264,3.265,16.954,16.954,0,0,0,4.765,2.206,20.754,20.754,0,0,0,5.867.794,24.357,24.357,0,0,0,12.528-2.514,7.719,7.719,0,0,0,4.014-6.837,5.689,5.689,0,0,0-1.456-4.015,10.975,10.975,0,0,0-4.411-2.735,48.519,48.519,0,0,0-6.837-1.941c-2.691-.574-5.734-1.147-9.131-1.765-1.72-.264-3.529-.573-5.381-.97a42.444,42.444,0,0,1-5.6-1.589,29.493,29.493,0,0,1-5.337-2.514,19.185,19.185,0,0,1-4.411-3.749,18.378,18.378,0,0,1-3.132-5.382,21.53,21.53,0,0,1-1.146-7.367,23.694,23.694,0,0,1,1.9-9.616,19.536,19.536,0,0,1,5.955-7.543,29.11,29.11,0,0,1,10.234-4.94,56.057,56.057,0,0,1,14.866-1.764A40.524,40.524,0,0,1,878.8,535.81a28.451,28.451,0,0,1,9.263,4.9,21.576,21.576,0,0,1,5.867,7.543,22.5,22.5,0,0,1,2.028,9.615H878.32a8.821,8.821,0,0,0-3.75-6.528,15.132,15.132,0,0,0-9.131-2.559,22.406,22.406,0,0,0-6.4.794,14.021,14.021,0,0,0-4.411,1.984,8.075,8.075,0,0,0-2.47,2.912,7.806,7.806,0,0,0-.794,3.4,5.3,5.3,0,0,0,1.1,3.441,7.9,7.9,0,0,0,3.264,2.338,26.487,26.487,0,0,0,5.558,1.632c2.25.441,4.9.838,7.94,1.147a95.4,95.4,0,0,1,10.807,2.161,36.938,36.938,0,0,1,9.528,3.7,19.941,19.941,0,0,1,6.749,6.4,18.129,18.129,0,0,1,2.558,10.145,22.765,22.765,0,0,1-2.559,11.117,22.362,22.362,0,0,1-7.234,7.852,33.249,33.249,0,0,1-11.292,4.719,62.587,62.587,0,0,1-14.645,1.589,41.152,41.152,0,0,1-14.072-2.206,30.88,30.88,0,0,1-9.969-5.823,24.077,24.077,0,0,1-6-8.072,22.055,22.055,0,0,1-1.985-8.823Z" transform="translate(579.512 -153.758)" fill="#fff"/>
  <path id="Path_2162" data-name="Path 2162" d="M847.731,537.439a9.342,9.342,0,0,1,.794-3.838,10.157,10.157,0,0,1,2.25-3.176,11.092,11.092,0,0,1,3.484-2.161,12.441,12.441,0,0,1,4.411-.794,13.234,13.234,0,0,1,4.411.794,11.326,11.326,0,0,1,3.529,2.161A10.279,10.279,0,0,1,868.9,533.6a9.658,9.658,0,0,1,0,7.676,10.1,10.1,0,0,1-2.294,3.132,9.793,9.793,0,0,1-3.528,2.117,13.233,13.233,0,0,1-4.411.794,12.055,12.055,0,0,1-4.412-.794,9.631,9.631,0,0,1-3.484-2.117,10.1,10.1,0,0,1-2.294-3.132A9.353,9.353,0,0,1,847.731,537.439Zm1.985,21.306H867.67v75.343H849.716Z" transform="translate(636.17 -176.164)" fill="#fff"/>
  <path id="Path_2163" data-name="Path 2163" d="M931.91,611.684H913.956V571.5a34.006,34.006,0,0,0-1.323-10.189,17.855,17.855,0,0,0-3.75-6.838,14.237,14.237,0,0,0-5.867-3.794,24.162,24.162,0,0,0-7.808-1.147,21.1,21.1,0,0,0-8.822,1.72,20.07,20.07,0,0,0-6.794,4.808,22.055,22.055,0,0,0-4.411,7.411,26.912,26.912,0,0,0-1.588,9.4v38.819H855.95V536.341h14.469l1.323,7.587a40.744,40.744,0,0,1,5.293-3.838,39.765,39.765,0,0,1,6.264-3.132,36.466,36.466,0,0,1,6.97-2.117,35.272,35.272,0,0,1,7.411-.794,42.657,42.657,0,0,1,15.218,2.47,26.467,26.467,0,0,1,10.676,7.19,29.071,29.071,0,0,1,6.219,11.6,57.317,57.317,0,0,1,2.03,15.792Z" transform="translate(664.211 -153.759)" fill="#fff"/>
</svg>
