<svg xmlns="http://www.w3.org/2000/svg" viewBox="0 0 316.86 316.86"><defs><style>.cls-1{fill:#00000e;}.cls-2{fill:#ee2f65;}</style></defs><g id="Layer_2" data-name="Layer 2"><g id="Layer_1-2" data-name="Layer 1"><rect class="cls-1" width="316.86" height="316.86" rx="57.83"/><path class="cls-2" d="M171.65,190.92H209l-6.34,27.46a21.52,21.52,0,0,1-21,16.68H161.46Z"/><path class="cls-2" d="M232.11,100.4l-5,22.07H189.74L199,81.8h18.26A15.22,15.22,0,0,1,232.11,100.4Z"/><path class="cls-2" d="M137.25,81.8l-13.91,58.26-8.82,33.4-14.81,61.6H88a20.1,20.1,0,0,1-19.52-24.88l25.9-105.71A29.75,29.75,0,0,1,123.23,81.8Z"/><polyline class="cls-2" points="114.52 173.46 123.34 140.06 224.93 140.06 227.27 132.11 249 158.43 213.28 182.5 215.73 173.55"/><polygon class="cls-2" points="123.34 140.06 114.52 173.46 101.63 173.46 101.63 140.06 123.34 140.06"/><line class="cls-2" x1="215.73" y1="173.55" x2="114.52" y2="173.55"/></g></g></svg>