<svg xmlns="http://www.w3.org/2000/svg" viewBox="0 0 181.14 153.26"><defs><style>.cls-1{fill:#fff;}</style></defs><g id="Layer_2" data-name="Layer 2"><g id="Layer_1-2" data-name="Layer 1"><path class="cls-1" d="M103.79,109.12h37.35l-6.34,27.46a21.52,21.52,0,0,1-21,16.68H93.61Z"/><path class="cls-1" d="M164.26,18.6l-5,22.07H121.88L131.15,0h18.26A15.22,15.22,0,0,1,164.26,18.6Z"/><path class="cls-1" d="M69.4,0,55.48,58.26l-8.82,33.4-14.8,61.6H20.11A20.1,20.1,0,0,1,.59,128.38L26.48,22.67A29.75,29.75,0,0,1,55.37,0Z"/><polyline class="cls-1" points="46.66 91.66 55.48 58.26 157.07 58.26 159.41 50.31 181.14 76.63 145.42 100.7 147.88 91.75"/><polygon class="cls-1" points="55.48 58.26 46.66 91.66 33.77 91.66 33.77 58.26 55.48 58.26"/><line class="cls-1" x1="147.88" y1="91.75" x2="46.66" y2="91.75"/></g></g></svg>